<?xml version="1.0" ?><!DOCTYPE svg  PUBLIC '-//W3C//DTD SVG 1.1//EN'  'http://www.w3.org/Graphics/SVG/1.1/DTD/svg11.dtd'><svg enable-background="new 0 0 500 500" height="500px" id="Layer_1" version="1.1" viewBox="0 0 500 500" width="500px" xml:space="preserve" xmlns="http://www.w3.org/2000/svg" xmlns:xlink="http://www.w3.org/1999/xlink"><path clip-rule="evenodd" d="M276.353,330.091l26.44,26.44c8.712,8.721,22.791,8.721,31.516,0  c8.729-8.723,8.729-22.814,0-31.526l-26.346-26.44l26.346-26.349c0,0-99.756-42.613-103.845-44.156  c-2.184-0.82-4.455-1.272-6.815-1.272c-10.54,0-19.075,8.45-19.075,18.898c0,2.453,0.45,4.725,1.276,6.814  c1.543,3.905,44.15,104.031,44.15,104.031L276.353,330.091z M31.949,417.582c0,20.079,16.264,36.341,36.34,36.341h363.421  c20.078,0,36.34-16.262,36.34-36.341V81.42c0-20.079-16.262-36.343-36.34-36.343H68.29c-20.077,0-36.34,16.264-36.34,36.343V417.582  z M97.367,172.274h305.267c11.084,0,19.99,8.903,19.99,19.989v196.24c0,11.085-8.906,19.992-19.99,19.992H97.367  c-11.083,0-19.991-8.907-19.991-19.992v-196.24C77.375,181.178,86.284,172.274,97.367,172.274z M77.375,113.219  c0-12.539,10.177-22.713,22.714-22.713c12.538,0,22.713,10.174,22.713,22.713c0,12.536-10.175,22.713-22.713,22.713  C87.553,135.932,77.375,125.755,77.375,113.219z M159.145,113.219c0-12.539,10.177-22.713,22.713-22.713  c12.539,0,22.716,10.174,22.716,22.713c0,12.536-10.177,22.713-22.716,22.713C169.322,135.932,159.145,125.755,159.145,113.219z   M240.914,113.219c0-12.539,10.177-22.713,22.715-22.713c12.537,0,22.712,10.174,22.712,22.713  c0,12.536-10.175,22.713-22.712,22.713C251.091,135.932,240.914,125.755,240.914,113.219z" fill="#010101" fill-rule="evenodd"/></svg>