<?xml version="1.0" ?><!DOCTYPE svg  PUBLIC '-//W3C//DTD SVG 1.1//EN'  'http://www.w3.org/Graphics/SVG/1.1/DTD/svg11.dtd'><svg enable-background="new 0 0 500 500" height="500px" id="Layer_1" version="1.1" viewBox="0 0 500 500" width="500px" xml:space="preserve" xmlns="http://www.w3.org/2000/svg" xmlns:xlink="http://www.w3.org/1999/xlink"><path clip-rule="evenodd" d="M227.787,363.569c0,12.535,10.177,22.715,22.713,22.715  c12.537,0,22.715-10.18,22.715-22.715c0-12.537-10.178-22.717-22.715-22.717C237.964,340.853,227.787,351.032,227.787,363.569z   M91.505,431.711c0,20.078,16.262,36.34,36.34,36.34h245.31c20.078,0,36.34-16.262,36.34-36.34V68.29  c0-20.077-16.262-36.34-36.34-36.34h-245.31c-20.079,0-36.34,16.264-36.34,36.34V431.711z M156.92,77.375h187.157  c11.085,0,19.992,8.905,19.992,19.991v150.814c0,11.081-8.907,19.991-19.992,19.991H156.92c-11.08,0-19.989-8.91-19.989-19.991  V97.367C136.932,86.28,145.84,77.375,156.92,77.375z M191.444,363.569c0-32.616,26.441-59.057,59.056-59.057  c32.614,0,59.056,26.44,59.056,59.057c0,32.614-26.441,59.055-59.056,59.055C217.885,422.624,191.444,396.184,191.444,363.569z" fill="#010101" fill-rule="evenodd"/></svg>